<svg width="115" height="96" viewBox="0 0 115 96" fill="none" xmlns="http://www.w3.org/2000/svg">
<g opacity="0.4">
<mask id="path-1-inside-1_14265_6881" fill="white">
<path d="M62.7337 -12.3134C66.8158 -14.9018 72.2232 -13.6908 74.8116 -9.60868L109.902 45.7335C112.49 49.8156 111.279 55.223 107.197 57.8113L51.8551 92.9018C47.773 95.4901 42.3656 94.2791 39.7773 90.197L4.6868 34.8549C2.09848 30.7728 3.30945 25.3653 7.39156 22.777L62.7337 -12.3134Z"/>
</mask>
<path d="M74.8116 -9.60868L73.2717 -8.63231L108.362 46.7098L109.902 45.7335L111.442 44.7571L76.3514 -10.585L74.8116 -9.60868ZM107.197 57.8113L106.221 56.2715L50.8788 91.3619L51.8551 92.9018L52.8315 94.4416L108.174 59.3512L107.197 57.8113ZM39.7773 90.197L41.3171 89.2207L6.22666 33.8785L4.6868 34.8549L3.14694 35.8313L38.2374 91.1734L39.7773 90.197ZM7.39156 22.777L8.36793 24.3169L63.7101 -10.7736L62.7337 -12.3134L61.7573 -13.8533L6.41519 21.2372L7.39156 22.777ZM4.6868 34.8549L6.22666 33.8785C4.17757 30.6469 5.13625 26.366 8.36793 24.3169L7.39156 22.777L6.41519 21.2372C1.48264 24.3647 0.019385 30.8987 3.14694 35.8313L4.6868 34.8549ZM51.8551 92.9018L50.8788 91.3619C47.6471 93.411 43.3662 92.4523 41.3171 89.2207L39.7773 90.197L38.2374 91.1734C41.3649 96.1059 47.8989 97.5692 52.8315 94.4416L51.8551 92.9018ZM109.902 45.7335L108.362 46.7098C110.411 49.9415 109.453 54.2224 106.221 56.2715L107.197 57.8113L108.174 59.3512C113.106 56.2236 114.569 49.6896 111.442 44.7571L109.902 45.7335ZM74.8116 -9.60868L76.3514 -10.585C73.2239 -15.5176 66.6899 -16.9808 61.7573 -13.8533L62.7337 -12.3134L63.7101 -10.7736C66.9417 -12.8227 71.2226 -11.864 73.2717 -8.63231L74.8116 -9.60868Z" fill="white" fill-opacity="0.2" mask="url(#path-1-inside-1_14265_6881)"/>
</g>
</svg>
